PathFileType	4	(X/Y/Z)	C:\Users\Basilio\Documents\Thesis Gigler\squatting_fais\c3dfiles\073\SLS_front_pre5\markers_experimental.trc
DataRate	CameraRate	NumFrames	NumMarkers	Units	OrigDataRate	OrigDataStartFrame	OrigNumFrames
200.000000	200.000000	4	61	mm	200.000000	799	1279
Frame#	Time	FHD			LBHD			RBHD			C7			T10			CLAV			LSHO			LUUPA			LMUPA			LDUPA			LLEP			LMEP			LRAD			LUL			LRFIN			RSHO			RUPA1			RMUPA			RDUPA			RLEP			RMEP			RUL			RUFIN			LASI			RASI			USACR			LSACR			RSACR			LTHI1			LTHI2			LTHI3			LTHI4			LLFC			LMFC			LTIB1			LTIB2			LTIB3			LTIB4			LLMAL			LMMAL			LHEE			LMT1			LMT2			LMT5			RTHI			RTHI2			RTHI3			RTHI4			RLFC			RMFC			RTIB1			RTIB2			RTIB3			RTIB4			RLMAL			RMMAL			RHEE			RMT1			RMT2			RMT5			RRAD			
		X1	Y1	Z1	X2	Y2	Z2	X3	Y3	Z3	X4	Y4	Z4	X5	Y5	Z5	X6	Y6	Z6	X7	Y7	Z7	X8	Y8	Z8	X9	Y9	Z9	X10	Y10	Z10	X11	Y11	Z11	X12	Y12	Z12	X13	Y13	Z13	X14	Y14	Z14	X15	Y15	Z15	X16	Y16	Z16	X17	Y17	Z17	X18	Y18	Z18	X19	Y19	Z19	X20	Y20	Z20	X21	Y21	Z21	X22	Y22	Z22	X23	Y23	Z23	X24	Y24	Z24	X25	Y25	Z25	X26	Y26	Z26	X27	Y27	Z27	X28	Y28	Z28	X29	Y29	Z29	X30	Y30	Z30	X31	Y31	Z31	X32	Y32	Z32	X33	Y33	Z33	X34	Y34	Z34	X35	Y35	Z35	X36	Y36	Z36	X37	Y37	Z37	X38	Y38	Z38	X39	Y39	Z39	X40	Y40	Z40	X41	Y41	Z41	X42	Y42	Z42	X43	Y43	Z43	X44	Y44	Z44	X45	Y45	Z45	X46	Y46	Z46	X47	Y47	Z47	X48	Y48	Z48	X49	Y49	Z49	X50	Y50	Z50	X51	Y51	Z51	X52	Y52	Z52	X53	Y53	Z53	X54	Y54	Z54	X55	Y55	Z55	X56	Y56	Z56	X57	Y57	Z57	X58	Y58	Z58	X59	Y59	Z59	X60	Y60	Z60	X61	Y61	Z61	

800	3.995	-145.4891815185547	1594.904296875	-784.2072753906252	-279.5735473632813	1563.00732421875	-804.454772949219	-298.0250854492188	1544.416137695313	-670.1962890625001	-322.8958435058594	1464.677368164063	-734.0091552734376	-496.6589965820314	1179.4326171875	-735.0018310546876	-224.3032989501954	1347.872314453125	-740.4792480468751	-243.7464294433594	1412.795532226563	-877.7031860351565	-178.6682434082032	1330.5029296875	-977.8728027343752	-134.7317047119141	1344.068603515625	-956.5190429687502	-121.119873046875	1294.893920898438	-990.3989257812502	-20.93601417541504	1257.261352539063	-997.2844848632815	-29.44957542419434	1202.78076171875	-952.871276855469	241.0498046875001	1256.547241210938	-888.5835571289065	244.0069122314454	1255.15673828125	-963.0029296875002	322.5865173339844	1263.265869140625	-882.0750732421877	-223.1944427490235	1394.39599609375	-600.3980712890626	-147.2960052490235	1281.156494140625	-502.5935974121095	-105.6489715576172	1297.387451171875	-520.1117553710939	-88.84532928466798	1244.562744140625	-497.8932495117189	0.132775217294693	1215.272216796875	-500.4377441406251	-12.27957248687744	1162.503295898438	-563.7276611328126	261.9265136718751	1232.299438476563	-556.9846801757814	336.3212280273438	1241.2841796875	-642.5473022460939	-382.6523742675782	1008.425659179688	-887.5013427734377	-346.0410461425782	979.056823730469	-640.9381103515626	-540.6154785156251	1046.625122070313	-736.0214233398439	-555.5225830078126	1019.72412109375	-765.4257812500001	-547.7789916992189	1011.388122558594	-710.6771240234376	-219.2361145019532	794.508239746094	-946.312438964844	-140.8855895996094	771.9500732421877	-923.5213623046877	-121.6482772827149	803.2895507812502	-889.2786254882815	-119.0692749023438	718.4046630859376	-917.8487548828127	-75.07619476318361	679.4741821289064	-918.3903808593752	-83.61446380615236	662.6022949218751	-779.8480224609377	91.83080291748048	565.1411132812501	-866.462585449219	79.20871734619142	501.9639892578126	-925.1013793945315	112.6687774658203	521.4089965820314	-900.7022705078127	164.4503173828125	461.5252380371095	-870.0427856445315	199.144271850586	334.6029052734376	-904.1987304687502	186.9316864013672	351.2489929199219	-818.723327636719	174.2220916748047	268.0286560058594	-868.5126953125002	344.3808593750001	402.6606445312501	-805.6929321289065	347.8949890136719	407.9556274414064	-844.7583007812502	339.7699279785157	372.6654052734376	-901.8719482421877	-352.4865112304688	737.0801391601564	-592.6052856445314	-298.1131286621094	699.6114501953126	-596.1692504882814	-267.6862182617188	713.6595458984376	-599.3994750976564	-293.4824829101563	620.3228149414064	-623.3586425781251	-232.3735504150391	491.5227050781251	-648.4421997070314	-230.8578186035157	495.7426757812501	-777.0458984375002	-228.186019897461	337.8666381835938	-754.0297851562501	-265.2684631347657	257.7480468750001	-692.1047363281251	-246.8262176513672	254.7384796142579	-736.6716918945314	-279.7985839843751	220.1274871826172	-769.9113769531252	-357.3378906250001	100.7772903442383	-721.0958251953126	-350.2639770507813	129.4595184326172	-807.446228027344	-431.6539916992189	85.00355529785158	-775.5220336914065	-208.0971069335938	54.43103027343751	-790.7021484375002	-208.4015655517579	51.82051849365236	-749.4451904296876	-251.7618560791016	34.61378479003907	-701.2798461914064	251.866195678711	1222.471313476563	-634.4920654296876	
801	4	-145.1645965576172	1596.784790039063	-784.450866699219	-279.9950256347657	1564.740356445313	-804.5151367187502	-298.1385498046876	1546.06884765625	-670.0631103515626	-323.1617736816407	1466.360595703125	-734.0215454101564	-496.2534179687501	1180.582885742188	-734.7460327148439	-224.4422912597657	1349.786010742188	-740.5997924804689	-243.9861297607422	1414.4306640625	-877.887145996094	-179.0489349365235	1331.990966796875	-978.0037841796877	-135.2382049560547	1345.375244140625	-956.9028320312502	-121.2749786376953	1296.246826171875	-990.443542480469	-21.23526954650879	1258.793212890625	-997.3635253906252	-29.72231101989747	1204.128173828125	-952.994323730469	240.7289428710938	1257.876831054688	-889.0650024414065	243.684066772461	1256.51416015625	-963.4578857421877	322.2866210937501	1264.455810546875	-882.486022949219	-223.0892028808594	1396.207763671875	-600.4410400390626	-147.239486694336	1282.673095703125	-502.626922607422	-105.5301971435547	1298.972900390625	-520.1748046875001	-88.83442687988283	1246.075073242188	-497.9943237304689	0.1381902694702149	1216.828979492188	-500.6918029785157	-12.26670360565186	1164.05126953125	-563.7289428710939	261.9530334472657	1233.7001953125	-557.1637573242189	336.3755187988282	1242.522705078125	-642.6229858398439	-382.0859680175782	1009.737243652344	-887.5755615234377	-345.3919677734376	980.3488769531252	-641.1339111328126	-540.2096557617189	1047.942993164063	-735.8608398437501	-554.9906005859376	1021.038940429688	-765.1973876953126	-547.2645874023439	1012.723693847656	-710.5276489257814	-219.1899719238282	795.4365234375002	-946.2513427734377	-140.760009765625	772.8751220703127	-923.424499511719	-121.489486694336	804.0850830078127	-889.1544189453127	-119.079345703125	719.0773925781251	-917.8497314453127	-75.21542358398439	680.1447143554689	-918.3720703125002	-83.70196533203126	663.3757934570314	-779.814392089844	91.4236297607422	565.5032348632814	-866.3513183593752	78.96911621093751	502.3432617187501	-925.0689697265627	112.3919525146485	521.7734375000001	-900.789001464844	163.9392852783203	461.7750549316407	-870.0367431640627	198.3105621337891	334.7598266601563	-904.1645507812502	186.2645721435547	351.4898681640626	-818.7947387695315	173.365707397461	268.2611389160157	-868.4444580078127	343.8097229003907	402.6007080078126	-805.825866699219	347.2702331542969	407.9761352539064	-844.8445434570315	339.1689147949219	372.6579284667969	-902.001892089844	-352.7256774902344	738.1538085937501	-592.5741577148439	-298.5158081054688	700.4581909179689	-596.2554321289064	-268.0277709960938	714.3973388671876	-599.4478759765626	-294.2361755371094	621.2055053710939	-623.3880615234376	-233.582015991211	492.0396423339845	-648.3604736328126	-232.1663055419922	496.195037841797	-776.9710083007815	-228.9848785400391	338.2449035644532	-753.8074951171876	-265.7527465820313	258.1441345214844	-692.3968505859376	-247.3167266845704	255.1505432128907	-736.5734863281251	-280.2083435058594	220.3897399902344	-769.8358154296877	-357.4279479980469	100.8317413330078	-721.0467529296876	-350.3833923339844	129.4695129394532	-807.3887939453127	-431.674041748047	85.01548004150392	-775.5352172851565	-208.1202239990235	54.42763137817384	-790.7564086914065	-208.388412475586	51.84707260131837	-749.4311523437501	-251.7406921386719	34.60411453247071	-701.2753295898439	251.7812194824219	1223.930908203125	-634.6439208984376	
802	4.005	-142.6317291259766	1598.955810546875	-784.7973632812502	-280.1527404785157	1566.492065429688	-804.5774536132815	-298.2900085449219	1547.955444335938	-670.0045166015626	-323.2566223144532	1467.927124023438	-733.9591064453126	-495.8634033203126	1181.907958984375	-734.6057128906251	-224.2795410156251	1351.445190429688	-740.5908203125001	-244.0759582519532	1416.097778320313	-878.047058105469	-179.2023162841797	1333.495361328125	-978.1064453125002	-135.4136657714844	1347.075805664063	-956.874938964844	-121.6186447143555	1297.817138671875	-990.576599121094	-21.53298377990723	1260.114135742188	-997.5806884765627	-30.06323242187501	1205.684936523438	-952.946960449219	240.6077117919922	1259.094604492188	-889.3623657226565	243.4867401123047	1257.552978515625	-963.6528930664065	322.4186401367188	1265.589599609375	-883.0827636718752	-223.0504913330079	1397.707885742188	-600.3911743164064	-147.0978240966797	1284.287841796875	-502.6189880371095	-105.4484558105469	1300.587036132813	-520.2649536132814	-88.69908905029298	1247.69580078125	-498.0105895996095	0.266344040632248	1218.36962890625	-500.6820373535157	-12.23020267486573	1165.540283203125	-563.7793579101564	261.9937438964844	1235.045166015625	-557.4082031250001	336.3695373535157	1243.89208984375	-642.9113769531251	-381.7536926269532	1011.271911621094	-887.5056762695315	-344.7323913574219	981.5761718750002	-641.1904907226564	-539.6470947265626	1049.27294921875	-735.6527099609376	-554.5968627929689	1022.409301757813	-764.9600219726564	-546.6138916015626	1014.134155273438	-710.2825927734376	-219.0721435546876	796.471374511719	-946.2666015625002	-140.7438201904297	773.7386474609377	-923.5078125000002	-121.2996292114258	804.9483642578127	-889.049011230469	-119.1283645629883	719.9097290039064	-917.821228027344	-75.36746215820314	680.8894653320314	-918.4587402343752	-83.80077362060548	664.1398925781251	-779.822937011719	91.29903411865236	565.9420166015626	-866.1475219726565	78.55281829833986	502.667205810547	-925.0502929687502	111.9473419189453	522.0452270507814	-900.8826904296877	163.412094116211	462.0159606933595	-870.026062011719	197.5867004394532	334.9765319824219	-904.2393188476565	185.6045837402344	351.7199401855469	-818.7928466796877	172.5062103271485	268.4451904296876	-868.3684082031252	343.2287902832032	402.6434326171876	-805.951599121094	346.6458129882813	407.9178466796876	-844.899108886719	338.3762817382813	372.5222778320313	-902.0010375976565	-353.0417785644532	739.2880859375001	-592.5332641601564	-298.8868713378907	701.4064941406251	-596.3442382812501	-268.5312194824219	715.1473999023439	-599.2225341796876	-295.1006469726563	622.0291748046876	-623.3508300781251	-234.8709564208985	492.5789794921876	-648.3454589843751	-233.3613586425782	496.5630493164064	-776.8278808593752	-229.7361145019532	338.6136169433594	-753.5364990234376	-266.5476989746094	258.2434997558594	-691.8797607421876	-247.9079132080079	255.4961853027344	-736.3254394531251	-280.5473022460938	220.5903015136719	-769.6448974609377	-357.5412597656251	100.8749237060547	-721.0395507812501	-350.4580383300782	129.5038757324219	-807.3222656250002	-431.674530029297	85.02004241943361	-775.5084228515627	-208.1126708984376	54.43666458129884	-790.742370605469	-208.3917236328126	51.84231567382814	-749.4357299804689	-251.7695770263672	34.6244010925293	-701.2702636718751	251.8226928710938	1225.202026367188	-634.8977050781251	
803	4.01	-145.6563873291016	1600.361083984375	-784.6724853515627	-280.4657897949219	1568.231201171875	-804.5561523437502	-298.4806213378907	1549.73779296875	-670.0922851562501	-323.4434509277344	1469.588500976563	-733.9915771484376	-495.5856018066407	1183.03662109375	-734.4916381835939	-224.3178863525391	1353.39794921875	-740.7088623046876	-244.3372344970704	1417.759643554688	-878.1511840820315	-179.5291290283203	1335.081665039063	-978.1944580078127	-135.7794494628907	1348.417724609375	-957.1953735351565	-121.9402160644532	1299.257690429688	-990.6604614257815	-21.79495429992676	1261.62841796875	-997.762634277344	-30.44548606872559	1207.061401367188	-953.1099243164065	240.3565216064454	1260.288940429688	-889.7375488281252	243.057357788086	1258.75146484375	-963.9768066406252	322.2190856933594	1266.605224609375	-883.538757324219	-222.9898986816407	1399.483642578125	-600.4334106445314	-147.0643310546875	1285.83447265625	-502.6787109375001	-105.295394897461	1302.106567382813	-520.2821655273439	-88.58463287353517	1249.211669921875	-498.1210021972657	0.3671329617500306	1219.908935546875	-500.8414916992189	-12.18971633911133	1167.123291015625	-563.9761352539064	262.0521545410157	1236.437133789063	-557.6939086914064	336.4441223144532	1245.211669921875	-643.1026611328126	-381.1500549316407	1012.559387207031	-887.577575683594	-344.0273742675782	982.7601318359377	-641.2326660156251	-538.9718627929689	1050.697509765625	-735.4618530273439	-553.9609375000001	1023.802124023438	-764.8678588867189	-545.9114379882814	1015.373657226563	-710.0481567382814	-219.0617980957032	797.455505371094	-946.281677246094	-140.6322479248047	774.4534301757815	-923.5410156250002	-121.0556411743164	805.7888793945315	-888.9733886718752	-119.106803894043	720.7637939453126	-917.787780761719	-75.51049804687501	681.6073608398439	-918.467712402344	-83.85915374755861	664.8761596679689	-779.8208007812502	90.87630462646486	566.1495361328126	-866.4459228515627	77.9628372192383	503.0691223144532	-925.1682739257815	111.4635314941407	522.3446655273439	-900.9092407226565	162.9107666015625	462.3069763183595	-870.032897949219	196.8296051025391	335.0581665039063	-904.1463012695315	184.9229888916016	351.9084472656251	-818.7376098632815	171.6409912109375	268.6485595703126	-868.336364746094	342.6622009277344	402.634002685547	-806.160827636719	346.0994873046876	407.8272094726564	-845.0028076171877	337.3889160156251	372.3933410644532	-902.1447753906252	-353.3130798339844	740.4987792968751	-592.4820556640626	-299.3024291992188	702.2383422851564	-596.2791748046876	-268.9468994140626	715.8109741210939	-599.1380615234376	-295.9810485839844	622.8753051757814	-623.2468872070314	-236.1240997314454	493.1334228515626	-648.1502075195314	-234.6607360839844	497.0603027343751	-776.6712036132815	-230.4529876708985	339.0686035156251	-753.3976440429689	-267.1528625488282	258.6825561523438	-692.1641845703126	-248.5624084472657	255.8135833740235	-736.0123291015626	-280.1529235839844	220.5779571533204	-769.5189208984377	-357.6326293945313	100.8885726928711	-720.9717407226564	-350.5776977539063	129.5523071289063	-807.234558105469	-431.6717529296876	85.00942230224611	-775.4825439453127	-208.1332397460938	54.470272064209	-790.6925048828127	-208.3879852294922	51.81374740600587	-749.4263916015626	-251.7664947509766	34.5937728881836	-701.2691650390626	252.2350311279297	1226.818481445313	-635.2623291015626	
